# xmcd CD database file
#
# Track frame offsets:
#	150
#	31574
#	66570
#	90920
#	125471
#	180767
#	205486
#	237661
#
# Disc length: 3609 seconds
#
# Revision: 0
# Processed by: cddbd v1.5.2PL0 Copyright (c) Steve Scherf et al.
# Submitted via: CDex 1.51
#
DISCID=630e1708
DTITLE=Peter Asplund Quartet - As Knights Concur
DYEAR=2008
DGENRE=Jazz
TTITLE0=In a pensive place
TTITLE1=Days of wine and roses
TTITLE2=I love you
TTITLE3=Wonderyear
TTITLE4=My funny Valentine
TTITLE5=The Prowlers
TTITLE6=Sunny
TTITLE7=On Green dolphin street
EXTD=YEAR: 2008
EXTT0=
EXTT1=
EXTT2=
EXTT3=
EXTT4=
EXTT5=
EXTT6=
EXTT7=
PLAYORDER=
